<svg width="128" height="128" viewBox="0 0 128 128" fill="none" xmlns="http://www.w3.org/2000/svg">
  <defs>
    <linearGradient id="bg2" x1="10" y1="12" x2="120" y2="118" gradientUnits="userSpaceOnUse">
      <stop stop-color="#22D3EE" stop-opacity="0.9" />
      <stop offset="1" stop-color="#8B5CF6" stop-opacity="0.85" />
    </linearGradient>
  </defs>
  <rect x="6" y="6" width="116" height="116" rx="28" fill="url(#bg2)" />
  <path d="M64 64c12.2 0 22-9.8 22-22S76.2 20 64 20 42 29.8 42 42s9.8 22 22 22Z" fill="rgba(11,16,32,0.25)" />
  <path d="M26 112c5.6-18 20.2-30 38-30s32.4 12 38 30" fill="rgba(11,16,32,0.25)" />
  <path d="M44 50h40" stroke="rgba(255,255,255,0.8)" stroke-width="5" stroke-linecap="round" />
  <path d="M48 95h32" stroke="rgba(255,255,255,0.8)" stroke-width="5" stroke-linecap="round" />
  <path
    d="M50 42c3.5-4 8.2-6 14-6h0c6.7 0 12.1 2.5 15.8 7"
    stroke="rgba(255,255,255,0.7)"
    stroke-width="4"
    stroke-linecap="round"
  />
</svg>
