<svg width="128" height="128" viewBox="0 0 128 128" fill="none" xmlns="http://www.w3.org/2000/svg">
  <defs>
    <linearGradient id="bg1" x1="14" y1="8" x2="118" y2="120" gradientUnits="userSpaceOnUse">
      <stop stop-color="#8B5CF6" stop-opacity="0.95" />
      <stop offset="1" stop-color="#22D3EE" stop-opacity="0.85" />
    </linearGradient>
  </defs>
  <rect x="6" y="6" width="116" height="116" rx="28" fill="url(#bg1)" />
  <path d="M64 63c12.2 0 22-9.8 22-22S76.2 19 64 19 42 28.8 42 41s9.8 22 22 22Z" fill="rgba(11,16,32,0.25)" />
  <path d="M26 112c5.6-18 20.2-30 38-30s32.4 12 38 30" fill="rgba(11,16,32,0.25)" />
  <path
    d="M44.5 44.5c5.2-10 14.5-14.5 24-14.5 9.3 0 16.8 4.1 21 10.7"
    stroke="rgba(255,255,255,0.75)"
    stroke-width="4"
    stroke-linecap="round"
  />
  <path d="M44 95h40" stroke="rgba(255,255,255,0.8)" stroke-width="5" stroke-linecap="round" />
</svg>
